<svg width="14" height="14" viewBox="0 0 14 14" fill="none" xmlns="http://www.w3.org/2000/svg">
<path d="M10.375 3.90527V3.91277M1 4.28027C1 3.48462 1.31607 2.72156 1.87868 2.15895C2.44129 1.59634 3.20435 1.28027 4 1.28027H10C10.7956 1.28027 11.5587 1.59634 12.1213 2.15895C12.6839 2.72156 13 3.48462 13 4.28027V10.2803C13 11.0759 12.6839 11.839 12.1213 12.4016C11.5587 12.9642 10.7956 13.2803 10 13.2803H4C3.20435 13.2803 2.44129 12.9642 1.87868 12.4016C1.31607 11.839 1 11.0759 1 10.2803V4.28027ZM4.75 7.28027C4.75 7.87701 4.98705 8.44931 5.40901 8.87126C5.83097 9.29322 6.40326 9.53027 7 9.53027C7.59674 9.53027 8.16903 9.29322 8.59099 8.87126C9.01295 8.44931 9.25 7.87701 9.25 7.28027C9.25 6.68354 9.01295 6.11124 8.59099 5.68928C8.16903 5.26733 7.59674 5.03027 7 5.03027C6.40326 5.03027 5.83097 5.26733 5.40901 5.68928C4.98705 6.11124 4.75 6.68354 4.75 7.28027Z" stroke="#F2EEE8" stroke-linecap="round" stroke-linejoin="round"/>
</svg>
